<?xml version="1.0" encoding="utf-8"?>
<svg xmlns="http://www.w3.org/2000/svg" viewBox="-233.842 -126.697 943.439 363.136" fill="#465848">
  <g id="layer0" transform="matrix(1, 0, 0, 1, -375.441875, -334.446696)">
    <path d="M324,562.335C321.525,562.161 316.575,561.71 313,561.331C306.624,560.656 306.8,560.61 322.255,558.914C335.499,557.459 339.041,556.701 344.48,554.156C353.543,549.915 359.077,543.833 365.003,531.602C371.779,517.618 374.175,507.48 374.124,493.011C374.065,476.226 371.042,465.68 360.219,444.5C347.072,418.773 344.992,412.845 345.11,401.433C345.224,390.341 342.672,385.874 330.784,376.35C325.496,372.114 323.884,370.176 323.198,367.235C319.878,352.997 318.694,349.304 316.808,347.296C314.077,344.389 313.318,345.018 307.608,354.918C302.088,364.488 300.033,366.487 292.632,369.491C284.032,372.981 279.626,377.928 277.591,386.378C277.21,387.961 274.435,391.838 271.424,394.994L265.951,400.732L266.565,406.616C267.857,418.992 270.993,423.292 279.971,424.994C286.486,426.23 288.301,427.731 289.969,433.266C293.131,443.757 290.535,453.493 280.976,467C264.608,490.126 259.771,511.642 265.442,536.093C267.025,542.92 270.971,554.11 273.563,559.121C276.398,564.604 273.351,561.973 269.66,555.75C264.969,547.844 260.575,534.16 258.916,522.291C257.385,511.339 258.587,499.506 262.353,488.431C265.613,478.849 267.932,474.568 274.544,465.929C282.794,455.151 285.998,447.968 285.999,440.25C286,435.333 285.574,433.574 284,432C282.9,430.9 281.438,429.997 280.75,429.994C277.54,429.98 271.764,427.673 268.895,425.258C265.388,422.307 263.399,418.258 261.402,410C259.085,400.422 259.391,399.149 265.362,393.538C271.3,387.958 272.488,386.088 274.594,378.996C276.346,373.096 279.87,369.92 289.575,365.497L296.685,362.257L297.313,354.831C298.753,337.795 304.567,327.499 314.521,324.362C319.642,322.748 320.696,322.748 333.224,324.362C340.526,325.303 348.075,325.809 350,325.487C368.237,322.435 374.896,316.322 383.005,295.186C386.044,287.264 386.113,286.782 384.465,284.961C383.096,283.448 382.871,282.031 383.385,278.153L384.035,273.255L373.488,269.612C359.082,264.636 348.89,259.496 344.489,254.988C341.534,251.962 340.518,249.864 339.381,244.443C337.007,233.118 333.203,228.654 320.721,222.549C299.793,212.311 272.425,213.131 255.29,224.508C249.814,228.144 236.64,243.153 228.278,255.283C223.607,262.059 223.602,262.076 222.931,272.783C221.967,288.158 219.027,294.815 196.334,333C167.625,381.307 157.679,403.574 151.323,433.776C148.926,445.165 148.639,448.703 148.585,467.5C148.533,485.655 148.823,489.816 150.722,498.214C155.067,517.43 163.137,536.733 173.421,552.509C176.465,557.179 178.545,561 178.043,561C176.3,561 162.425,541.448 157.818,532.5C145.235,508.059 139.286,477.599 142,451.5C144.31,429.285 149.912,409.207 160.088,386.668C166.653,372.129 172.192,362.053 189.319,333.5C212.328,295.14 217.177,284.372 217.466,271C217.598,264.915 218.23,261.199 219.693,257.922C221.739,253.336 235.657,235.284 243.386,227.192C252.001,218.172 262.433,213.133 278.09,210.431C286.224,209.027 288.039,209.034 298.019,210.503C315.644,213.097 327.613,217.925 335.603,225.665C340.278,230.195 342.372,234.284 343.505,241.102C345.412,252.569 349.567,255.485 376.814,264.474C384.482,267.004 391.505,269.901 392.421,270.913C394.864,273.612 395.392,278.912 393.675,283.5C392.852,285.7 390.41,292.225 388.248,298C383.203,311.477 381.723,314.26 376.705,319.704C368.953,328.115 358.785,331.581 344.773,330.592C315.403,328.518 314.703,328.537 311.156,331.522C307.015,335.007 304.5,339.968 302.993,347.629C301.029,357.611 301.937,358.247 307.002,350.437C312.086,342.597 314.67,341.402 318.588,345.082C321.133,347.474 323.962,354.228 325.937,362.633C327.01,367.198 327.74,368.177 332.53,371.476C339.235,376.094 345.177,382.467 348.078,388.151C349.728,391.384 350.485,395.194 351.03,403C351.804,414.1 353.562,419.915 359.163,429.906C370.253,449.689 374.321,459.102 377.571,472.5C385.778,506.327 372.497,546.942 349.5,558.348C344.554,560.801 334.564,563.163 330.566,562.825C329.43,562.729 326.475,562.509 324,562.335ZM485,477.037L485,458.807L494.25,459.153C505.426,459.572 510.381,461.717 513.734,467.588C516.467,472.376 516.745,480.627 514.344,485.688C513.433,487.608 510.944,490.332 508.812,491.743C505.486,493.944 503.525,494.375 494.969,494.787L485,495.267L485,477.037ZM506.674,488.75C510.03,486.461 513.018,480.763 512.978,476.73C512.935,472.357 509.391,466.413 505.814,464.716C501.45,462.645 494.842,461.572 491.547,462.399L489,463.038L489,477.019L489,491L496.188,491C501.999,491 504.008,490.569 506.674,488.75ZM558.667,494.333C558.3,493.967 558,490.457 558,486.533C558,482.61 557.575,478.972 557.057,478.45C555.995,477.381 545,460.001 545,459.392C545,459.176 545.821,459 546.825,459C548.479,459 556.68,470.398 558.569,475.319C558.924,476.244 559.524,477 559.903,477C560.281,477 563.046,472.952 566.046,468.003C569.571,462.189 572.119,459.006 573.25,459.003C574.212,459.002 575,459.283 575,459.628C575,459.974 572.075,464.916 568.5,470.611C562.101,480.804 562,481.075 562,487.983C562,493.164 561.651,495 560.667,495C559.933,495 559.033,494.7 558.667,494.333ZM607,477.073L607,459L615.032,459C623.935,459 628.867,460.545 631.369,464.117C634.534,468.635 632.471,478.081 628.011,479.497C625.257,480.37 625.411,481.023 630.067,488.216C633.585,493.652 633.893,494.549 632.347,494.866C630.46,495.252 629.757,494.486 624.669,486.5C621.583,481.656 621.321,481.491 616.289,481.199L611.094,480.899L610.797,487.689C610.555,493.22 610.175,494.541 608.75,494.813C607.136,495.121 607,493.746 607,477.073ZM625.316,476.85C628.345,475.256 628.967,474.062 628.985,469.807C629.006,464.605 626.364,463 617.777,463L611,463L611,470.5L611,478L617.066,478C620.402,478 624.114,477.483 625.316,476.85ZM668,477L668,459L679.5,459C689.056,459 691,459.254 691,460.5C691,461.653 689.552,462.045 684.75,462.195C681.312,462.302 677.375,462.486 676,462.603C674.625,462.72 672.915,462.858 672.2,462.908C671.257,462.975 670.983,464.579 671.2,468.75L671.5,474.5L680.25,474.789C687.013,475.012 689,475.401 689,476.5C689,477.598 687.022,477.988 680.316,478.211L671.633,478.5L671.566,484.5L671.5,490.5L681.25,490.786C690.176,491.048 691,491.238 691,493.036C691,494.874 690.263,495 679.5,495L668,495L668,477ZM726.688,494.354C726.309,493.976 726,485.867 726,476.333C726,459.667 726.077,459 728,459C729.86,459 730,459.667 730,468.5C730,473.725 730.273,478 730.607,478C730.941,478 735.26,473.725 740.205,468.5C745.428,462.981 749.993,459 751.098,459C752.144,459 753,459.327 753,459.726C753,460.126 749.778,463.697 745.84,467.661L738.68,474.87L745.634,483.685C754.58,495.025 754.566,495 752.067,495C750.681,495 747.853,492.24 743.356,486.5C739.694,481.825 736.399,478 736.036,478C735.672,478 734.191,479.238 732.745,480.75C730.692,482.898 730.049,484.688 729.808,488.921C729.522,493.95 728.341,496.007 726.688,494.354ZM786.868,492.283C786.666,490.752 786.635,482.637 786.8,474.25C787.046,461.733 787.36,459 788.55,459C789.756,459 790,461.685 790,474.962L790,490.925L799.25,491.212C806.678,491.443 808.5,491.795 808.5,493C808.5,494.222 806.526,494.552 797.868,494.783L787.237,495.065L786.868,492.283ZM841,477C841,460.256 841.135,458.879 842.75,459.19C844.337,459.496 844.5,461.154 844.5,476.995C844.5,492.835 844.337,494.495 842.75,494.805C841.135,495.12 841,493.746 841,477ZM881.667,494.333C881.3,493.967 881,485.835 881,476.264C881,459.018 881.019,458.864 883.152,459.18C884.556,459.389 888.745,464.023 895.194,472.5C900.634,479.65 905.74,486.159 906.542,486.964C907.82,488.247 908,486.608 908,473.714C908,461.302 908.235,459 909.5,459C910.778,459 911,461.675 911,477.073C911,493.698 910.861,495.12 909.262,494.812C908.307,494.628 902.569,488.021 896.512,480.129L885.5,465.782L885.223,480.391C885.011,491.608 884.643,495 883.64,495C882.921,495 882.033,494.7 881.667,494.333ZM948.688,494.354C948.309,493.976 948,485.867 948,476.333C948,459.601 948.07,459 950.023,459C951.988,459 952.038,459.51 951.773,476.668C951.517,493.251 950.933,496.599 948.688,494.354ZM989.688,494.354C989.309,493.976 989,485.867 989,476.333C989,459.667 989.077,459 991,459C992.868,459 993.001,459.674 993.022,469.25L993.044,479.5L1002.61,469.25C1010.07,461.263 1012.76,459 1014.82,459C1017.23,459 1016.79,459.669 1009.69,466.806L1001.93,474.613L1009.47,484.229C1013.61,489.518 1017,494.105 1017,494.422C1017,494.74 1016.14,495 1015.1,495C1013.88,495 1010.92,491.967 1006.85,486.55C1003.36,481.902 1000.02,478.077 999.437,478.05C998.852,478.022 997.191,479.238 995.745,480.75C993.692,482.898 993.049,484.688 992.808,488.921C992.522,493.95 991.341,496.007 989.688,494.354ZM1050,477C1050,459.667 1050.07,459 1052,459C1053.87,459 1054,459.667 1054,469.223L1054,479.445L1063.58,469.223C1071.05,461.252 1073.75,459 1075.81,459C1078.23,459 1077.79,459.665 1070.64,466.864L1062.82,474.727L1070.38,484.114C1074.54,489.276 1077.95,493.837 1077.97,494.25C1077.99,494.663 1077.12,495 1076.05,495C1074.8,495 1071.75,491.98 1067.47,486.5C1063.82,481.825 1060.56,478 1060.22,478C1059.88,478 1058.35,479.209 1056.8,480.687C1054.36,483.028 1054,484.124 1054,489.187C1054,494.333 1053.77,495 1052,495C1050.07,495 1050,494.333 1050,477ZM500.001,417.069L491.502,414.057L489.134,416.611C487.71,418.147 486.402,418.802 485.855,418.255C485.354,417.754 485.07,410.63 485.222,402.422C485.444,390.504 485.779,387.5 486.886,387.5C487.726,387.5 488.817,389.63 489.655,392.904C493.001,405.979 500.279,413.67 511.51,416.002C516.032,416.941 517.958,416.863 522.434,415.562C532.331,412.685 537,406.73 537,396.982C537,387.478 532.835,383.021 515.5,373.978C502.048,366.961 498.979,365.038 494.128,360.591C484.115,351.413 483.194,334.741 492.138,324.58C497.526,318.46 504.303,315.746 515.5,315.224C523.376,314.857 525.358,315.129 531.369,317.402C539.281,320.394 541.272,320.582 543,318.5C543.685,317.675 544.877,317 545.651,317C546.804,317 547.006,319.472 546.778,330.75C546.452,346.854 545.268,348.385 541.492,337.58C537.018,324.775 529.811,319 518.303,319C506.477,319 500.011,324.583 500.004,334.8C499.997,344.939 504.43,349.429 524.774,359.884C545.279,370.422 550.927,376.65 551.808,389.694C552.621,401.736 547.329,410.744 536.232,416.206C530.191,419.181 528.605,419.51 519.039,419.782C509.445,420.054 507.738,419.811 500.001,417.069ZM1056.4,418.096C1051.18,415.722 1049.55,412.992 1042.04,394.04C1038.67,385.537 1034.8,377.114 1033.43,375.322C1030.43,371.386 1025.49,369.74 1018,370.178L1012.5,370.5L1012.2,388C1011.82,409.872 1012.44,412.524 1018.28,414.019C1024.4,415.586 1025,415.838 1025,416.862C1025,418.399 1023.23,418.511 1003.75,418.207C988.687,417.972 985,417.645 985,416.545C985,415.727 986.609,414.904 988.996,414.501C991.562,414.067 993.72,412.9 995.027,411.239C997.011,408.716 997.055,407.598 996.781,366.361C996.466,318.988 996.854,321.327 989.138,320.292C985.891,319.856 985,319.317 985,317.786C985,315.889 985.762,315.846 1012.75,316.241C1043.17,316.686 1046.95,317.287 1054.7,322.9C1066.68,331.578 1066.1,353.447 1053.67,361.82C1049.21,364.828 1041.53,368 1038.72,368C1037.77,368 1037,368.45 1037,369C1037,369.55 1037.74,370 1038.64,370C1039.54,370 1042.25,370.983 1044.65,372.184C1050.04,374.874 1053.16,379.676 1059.06,394.353C1064.63,408.193 1069.18,413.751 1075.29,414.194C1081.12,414.618 1080.96,417.12 1075,418.67C1068.25,420.423 1061.04,420.2 1056.4,418.096ZM1036.38,363.731C1043.77,359.651 1047.51,351.331 1046.82,340.496C1046.33,332.857 1043.51,327.34 1038.16,323.558C1034.48,320.957 1032.98,320.57 1025.25,320.224C1011.9,319.627 1012.56,318.407 1012.2,344.334C1011.84,369.272 1010.72,367.163 1023.92,366.43C1030.11,366.086 1033.41,365.371 1036.38,363.731ZM589.176,418.252C578.448,418.021 574.953,417.637 575.252,416.722C575.473,416.05 577.393,414.921 579.519,414.213C581.645,413.505 584.046,412.38 584.854,411.713C586.861,410.057 592.43,401.263 609.859,372.227C633.34,333.109 639.121,322.721 638.022,321.622C637.482,321.082 635.124,320.383 632.783,320.07C629.81,319.672 628.425,318.972 628.19,317.75C627.874,316.106 630.348,316 668.927,316L710,316L710,329.5C710,340.756 709.754,343 708.519,343C707.705,343 706.784,341.762 706.474,340.25C704.256,329.449 701.873,325.072 696.671,322.248C694.126,320.867 690.868,320.524 680.172,320.513C668.062,320.501 666.713,320.68 665.402,322.468C664.236,324.06 664.012,328.277 664.23,344.468L664.5,364.5L668.5,364.826C679.596,365.729 686.137,362.065 687.466,354.204C688.239,349.624 689.722,347.964 691.11,350.122C691.598,350.88 691.885,358.7 691.748,367.5C691.545,380.616 691.241,383.5 690.065,383.5C689.18,383.5 688.145,381.587 687.361,378.5C685.38,370.692 682.722,369 672.444,369L664,369L664,388.435C664,399.124 664.429,408.997 664.952,410.375C666.163,413.559 671.101,415.007 680.5,414.935C698.623,414.795 704.824,410.795 708.738,396.719C709.878,392.617 710.79,391.005 711.854,391.21C712.681,391.37 713.277,391.837 713.179,392.25C713.08,392.663 713,398.625 713,405.5L713,418L675,418C641.889,418 637,417.807 637,416.5C637,415.675 637.562,414.997 638.25,414.994C642.122,414.977 646.785,412.768 647.841,410.45C648.565,408.861 649,401.918 649,391.953L649,376L631.083,376L613.167,376L604.083,391.738C599.088,400.394 595,408.439 595,409.616C595,412.489 596.771,413.78 601.822,414.587C606.423,415.323 608.043,416.725 605.878,418.096C605.12,418.577 604.275,418.877 604,418.764C603.725,418.652 597.054,418.421 589.176,418.252ZM649,349.434C649,327.165 648.466,323 645.614,323C644.891,323 638.74,332.562 631.947,344.25C625.153,355.938 618.741,366.962 617.699,368.75L615.802,372L632.401,372L649,372L649,349.434ZM771,416.561C771,415.626 772.552,414.89 775.44,414.457C783.849,413.196 783.458,415.4 783.819,367.238C783.994,343.833 783.873,323.63 783.55,322.342C783.018,320.223 782.416,320.002 777.231,320.024C761.519,320.091 754.581,325.319 750.965,339.813C750.163,343.027 749.457,344.042 748.195,343.799C747.263,343.619 746.545,342.916 746.6,342.236C746.655,341.556 746.768,335.375 746.85,328.5L747,316L791.5,316L836,316L836.009,324.75C836.013,329.562 836.306,335.903 836.659,338.839C837.279,344.008 837.225,344.168 834.974,343.839C833.029,343.555 832.47,342.6 831.553,337.987C829.152,325.912 823.118,321.098 809.307,320.236C802.673,319.822 800.605,320.013 799.915,321.103C798.613,323.16 798.751,406.214 800.063,409.665C801.401,413.185 802.287,413.714 808.202,414.528C811.345,414.96 813,415.673 813,416.594C813,417.757 809.377,418 792,418C774.397,418 771,417.767 771,416.561ZM869.24,416.78C869.464,416.109 871.514,415.096 873.797,414.53C881.892,412.521 881.462,414.929 881.807,369.715C882.017,342.301 881.761,328.292 881.004,325.705C879.846,321.751 877.216,320 872.435,320C870.667,320 870,319.452 870,318C870,316.036 870.667,316 907,316L944,316L944.2,325.5C944.56,342.589 944.565,342.5 943.195,342.5C942.478,342.5 940.897,339.546 939.681,335.935C935.335,323.02 932.058,320.816 916.259,320.184C903.117,319.658 899.637,320.307 898.153,323.564C897.408,325.199 897,333.019 897,345.672L897,365.251L905.25,364.772C909.788,364.509 914.692,363.726 916.15,363.032C918.836,361.753 921.688,356.563 922.212,352C922.377,350.572 923.143,349.5 924,349.5C925.274,349.5 925.5,352.028 925.5,366.25C925.5,376.583 925.117,383.096 924.5,383.25C923.95,383.387 922.716,381.025 921.757,378C919.196,369.919 917.628,369 906.389,369L897,369L897,387.935C897,398.349 897.428,407.997 897.952,409.374C899.6,413.708 902.428,414.501 916,414.432C930.169,414.361 932.785,413.507 937.934,407.271C939.647,405.197 941.798,401.025 942.716,398C946.185,386.56 948,387.739 948,401.434C948,407.108 947.719,413.156 947.375,414.875L946.75,418L907.792,418C877.58,418 868.925,417.726 869.24,416.78ZM258.5,328.285C255.196,327.488 250,324.83 250,323.937C250,323.478 251.561,323.754 253.468,324.551C257.905,326.405 264.316,326.405 267.901,324.551C274.504,321.136 279.962,311.409 281.456,300.388C281.883,297.244 281.515,290.7 280.502,283.388C278.95,272.191 279.134,258.643 280.852,257.598C281.208,257.381 281.569,260.646 281.653,264.853C281.738,269.06 282.71,276.326 283.815,281.001C284.919,285.675 286.125,291.543 286.493,294.04C287.926,303.738 282.371,320.467 276.281,324.796C271.519,328.181 264.101,329.637 258.5,328.285Z" />
  </g>
</svg>