<?xml version="1.0" encoding="utf-8"?>
<svg xmlns="http://www.w3.org/2000/svg" viewBox="132.6489 65.6883 342.1411 477.3949" width="342.141px" height="477.395px" preserveAspectRatio="none"><path id="mark" d="M 802.523 756.454 C 799.18 756.22 792.495 755.61 787.666 755.098 C 779.055 754.187 779.292 754.125 800.166 751.834 C 818.054 749.869 822.838 748.845 830.184 745.408 C 842.424 739.68 849.898 731.465 857.902 714.947 C 867.053 696.059 870.29 682.367 870.221 662.826 C 870.141 640.156 866.058 625.912 851.44 597.306 C 833.684 562.559 830.875 554.553 831.034 539.14 C 831.188 524.159 827.741 518.126 811.686 505.263 C 804.544 499.541 802.366 496.924 801.44 492.952 C 796.956 473.722 795.356 468.734 792.809 466.022 C 789.121 462.096 788.095 462.946 780.384 476.317 C 772.929 489.242 770.153 491.941 760.157 495.999 C 748.542 500.712 742.591 507.394 739.843 518.807 C 739.329 520.944 735.58 526.181 731.513 530.443 L 724.122 538.193 L 724.951 546.141 C 726.696 562.856 730.931 568.663 743.057 570.962 C 751.857 572.631 754.308 574.658 756.561 582.134 C 760.832 596.302 757.325 609.453 744.415 627.695 C 722.308 658.929 715.775 687.988 723.435 721.012 C 725.572 730.233 730.902 745.346 734.403 752.113 C 738.232 759.519 734.116 755.966 729.132 747.561 C 722.795 736.883 716.861 718.401 714.62 702.371 C 712.552 687.579 714.176 671.598 719.262 656.639 C 723.665 643.698 726.798 637.916 735.728 626.248 C 746.87 611.691 751.197 601.99 751.198 591.567 C 751.2 584.926 750.625 582.549 748.499 580.424 C 747.014 578.938 745.038 577.719 744.109 577.714 C 739.774 577.695 731.973 574.58 728.098 571.318 C 723.361 567.332 720.675 561.864 717.978 550.711 C 714.848 537.774 715.262 536.055 723.326 528.477 C 731.347 520.94 732.951 518.415 735.795 508.837 C 738.162 500.868 742.921 496.579 756.029 490.605 L 765.631 486.229 L 766.48 476.199 C 768.424 453.19 776.277 439.284 789.721 435.047 C 796.637 432.868 798.061 432.868 814.981 435.047 C 824.843 436.318 835.039 437.002 837.638 436.567 C 862.269 432.445 871.263 424.188 882.216 395.642 C 886.32 384.943 886.413 384.292 884.188 381.832 C 882.338 379.789 882.034 377.875 882.729 372.638 L 883.607 366.022 L 869.362 361.102 C 849.905 354.382 836.14 347.439 830.195 341.351 C 826.204 337.264 824.832 334.43 823.296 327.109 C 820.091 311.813 814.952 305.784 798.094 297.539 C 769.829 283.711 732.866 284.818 709.723 300.185 C 702.328 305.095 684.534 325.366 673.241 341.75 C 666.932 350.901 666.925 350.924 666.019 365.385 C 664.717 386.15 660.746 395.141 630.097 446.714 C 591.322 511.958 577.89 542.031 569.304 582.822 C 566.068 598.204 565.68 602.983 565.607 628.37 C 565.537 652.89 565.929 658.51 568.493 669.852 C 574.361 695.805 585.261 721.877 599.151 743.183 C 603.262 749.491 606.071 754.651 605.393 754.651 C 603.039 754.651 584.299 728.245 578.077 716.159 C 561.082 683.149 553.048 642.01 556.714 606.761 C 559.834 576.757 567.399 549.639 581.143 519.199 C 590.01 499.561 597.491 485.953 620.623 447.389 C 651.699 395.581 658.247 381.037 658.638 362.977 C 658.816 354.759 659.67 349.739 661.646 345.313 C 664.409 339.12 683.207 314.739 693.646 303.81 C 705.281 291.627 719.371 284.822 740.517 281.172 C 751.503 279.275 753.954 279.285 767.433 281.27 C 791.237 284.773 807.402 291.294 818.194 301.747 C 824.508 307.865 827.336 313.388 828.866 322.597 C 831.442 338.084 837.054 342.023 873.853 354.163 C 884.21 357.58 893.696 361.492 894.933 362.859 C 898.232 366.504 898.946 373.662 896.626 379.859 C 895.515 382.831 892.216 391.643 889.296 399.443 C 882.482 417.645 880.484 421.404 873.707 428.757 C 863.237 440.117 849.504 444.797 830.579 443.462 C 790.911 440.66 789.966 440.687 785.176 444.718 C 779.583 449.425 776.186 456.125 774.151 466.472 C 771.498 479.954 772.725 480.813 779.565 470.264 C 786.431 459.676 789.922 458.062 795.213 463.032 C 798.65 466.263 802.472 475.385 805.139 486.736 C 806.588 492.902 807.574 494.224 814.043 498.68 C 823.099 504.916 831.125 513.524 835.043 521.201 C 837.271 525.568 838.293 530.714 839.029 541.256 C 840.075 556.247 842.45 564.102 850.014 577.595 C 864.992 604.314 870.486 617.028 874.876 635.124 C 885.961 680.81 868.023 735.665 836.963 751.07 C 830.284 754.383 816.79 757.573 811.391 757.116 C 809.856 756.986 805.866 756.689 802.523 756.454 Z M 714.058 440.346 C 709.596 439.269 702.578 435.68 702.578 434.474 C 702.578 433.854 704.687 434.226 707.262 435.303 C 713.254 437.807 721.914 437.807 726.755 435.303 C 735.674 430.69 743.045 417.553 745.063 402.669 C 745.639 398.422 745.142 389.584 743.775 379.708 C 741.679 364.585 741.927 346.287 744.247 344.876 C 744.728 344.583 745.216 348.993 745.329 354.675 C 745.444 360.357 746.757 370.17 748.248 376.484 C 749.74 382.797 751.369 390.722 751.866 394.095 C 753.801 407.193 746.299 429.787 738.074 435.633 C 731.642 440.206 721.623 442.172 714.058 440.346 Z" style="fill: #465848" transform="matrix(0.9999999999999999, 0, 0, 0.9999999999999999, -423.1927490234375, -214.07664489746094)"/></svg>