<?xml version="1.0" encoding="utf-8"?>
<svg xmlns="http://www.w3.org/2000/svg" viewBox="-4.034 62.139 603.743 726.507" fill="#465848">
  <g transform="matrix(1, 0, 0, 1, -423.192749, -214.076645)">
    <path id="mark" d="M 802.523 756.454 C 799.18 756.22 792.495 755.61 787.666 755.098 C 779.055 754.187 779.292 754.125 800.166 751.834 C 818.054 749.869 822.838 748.845 830.184 745.408 C 842.424 739.68 849.898 731.465 857.902 714.947 C 867.053 696.059 870.29 682.367 870.221 662.826 C 870.141 640.156 866.058 625.912 851.44 597.306 C 833.684 562.559 830.875 554.553 831.034 539.14 C 831.188 524.159 827.741 518.126 811.686 505.263 C 804.544 499.541 802.366 496.924 801.44 492.952 C 796.956 473.722 795.356 468.734 792.809 466.022 C 789.121 462.096 788.095 462.946 780.384 476.317 C 772.929 489.242 770.153 491.941 760.157 495.999 C 748.542 500.712 742.591 507.394 739.843 518.807 C 739.329 520.944 735.58 526.181 731.513 530.443 L 724.122 538.193 L 724.951 546.141 C 726.696 562.856 730.931 568.663 743.057 570.962 C 751.857 572.631 754.308 574.658 756.561 582.134 C 760.832 596.302 757.325 609.453 744.415 627.695 C 722.308 658.929 715.775 687.988 723.435 721.012 C 725.572 730.233 730.902 745.346 734.403 752.113 C 738.232 759.519 734.116 755.966 729.132 747.561 C 722.795 736.883 716.861 718.401 714.62 702.371 C 712.552 687.579 714.176 671.598 719.262 656.639 C 723.665 643.698 726.798 637.916 735.728 626.248 C 746.87 611.691 751.197 601.99 751.198 591.567 C 751.2 584.926 750.625 582.549 748.499 580.424 C 747.014 578.938 745.038 577.719 744.109 577.714 C 739.774 577.695 731.973 574.58 728.098 571.318 C 723.361 567.332 720.675 561.864 717.978 550.711 C 714.848 537.774 715.262 536.055 723.326 528.477 C 731.347 520.94 732.951 518.415 735.795 508.837 C 738.162 500.868 742.921 496.579 756.029 490.605 L 765.631 486.229 L 766.48 476.199 C 768.424 453.19 776.277 439.284 789.721 435.047 C 796.637 432.868 798.061 432.868 814.981 435.047 C 824.843 436.318 835.039 437.002 837.638 436.567 C 862.269 432.445 871.263 424.188 882.216 395.642 C 886.32 384.943 886.413 384.292 884.188 381.832 C 882.338 379.789 882.034 377.875 882.729 372.638 L 883.607 366.022 L 869.362 361.102 C 849.905 354.382 836.14 347.439 830.195 341.351 C 826.204 337.264 824.832 334.43 823.296 327.109 C 820.091 311.813 814.952 305.784 798.094 297.539 C 769.829 283.711 732.866 284.818 709.723 300.185 C 702.328 305.095 684.534 325.366 673.241 341.75 C 666.932 350.901 666.925 350.924 666.019 365.385 C 664.717 386.15 660.746 395.141 630.097 446.714 C 591.322 511.958 577.89 542.031 569.304 582.822 C 566.068 598.204 565.68 602.983 565.607 628.37 C 565.537 652.89 565.929 658.51 568.493 669.852 C 574.361 695.805 585.261 721.877 599.151 743.183 C 603.262 749.491 606.071 754.651 605.393 754.651 C 603.039 754.651 584.299 728.245 578.077 716.159 C 561.082 683.149 553.048 642.01 556.714 606.761 C 559.834 576.757 567.399 549.639 581.143 519.199 C 590.01 499.561 597.491 485.953 620.623 447.389 C 651.699 395.581 658.247 381.037 658.638 362.977 C 658.816 354.759 659.67 349.739 661.646 345.313 C 664.409 339.12 683.207 314.739 693.646 303.81 C 705.281 291.627 719.371 284.822 740.517 281.172 C 751.503 279.275 753.954 279.285 767.433 281.27 C 791.237 284.773 807.402 291.294 818.194 301.747 C 824.508 307.865 827.336 313.388 828.866 322.597 C 831.442 338.084 837.054 342.023 873.853 354.163 C 884.21 357.58 893.696 361.492 894.933 362.859 C 898.232 366.504 898.946 373.662 896.626 379.859 C 895.515 382.831 892.216 391.643 889.296 399.443 C 882.482 417.645 880.484 421.404 873.707 428.757 C 863.237 440.117 849.504 444.797 830.579 443.462 C 790.911 440.66 789.966 440.687 785.176 444.718 C 779.583 449.425 776.186 456.125 774.151 466.472 C 771.498 479.954 772.725 480.813 779.565 470.264 C 786.431 459.676 789.922 458.062 795.213 463.032 C 798.65 466.263 802.472 475.385 805.139 486.736 C 806.588 492.902 807.574 494.224 814.043 498.68 C 823.099 504.916 831.125 513.524 835.043 521.201 C 837.271 525.568 838.293 530.714 839.029 541.256 C 840.075 556.247 842.45 564.102 850.014 577.595 C 864.992 604.314 870.486 617.028 874.876 635.124 C 885.961 680.81 868.023 735.665 836.963 751.07 C 830.284 754.383 816.79 757.573 811.391 757.116 C 809.856 756.986 805.866 756.689 802.523 756.454 Z M 714.058 440.346 C 709.596 439.269 702.578 435.68 702.578 434.474 C 702.578 433.854 704.687 434.226 707.262 435.303 C 713.254 437.807 721.914 437.807 726.755 435.303 C 735.674 430.69 743.045 417.553 745.063 402.669 C 745.639 398.422 745.142 389.584 743.775 379.708 C 741.679 364.585 741.927 346.287 744.247 344.876 C 744.728 344.583 745.216 348.993 745.329 354.675 C 745.444 360.357 746.757 370.17 748.248 376.484 C 749.74 382.797 751.369 390.722 751.866 394.095 C 753.801 407.193 746.299 429.787 738.074 435.633 C 731.642 440.206 721.623 442.172 714.058 440.346 Z" style=""/>
    <path id="saeter" d="M 438.191 834.195 C 438.191 838.555 439.288 842.325 441.481 845.505 C 443.668 848.685 446.518 851.518 450.031 854.005 C 453.538 856.485 457.238 858.945 461.131 861.385 C 465.264 863.891 469.218 866.535 472.991 869.315 C 476.764 872.088 479.888 875.328 482.361 879.035 C 484.834 882.741 486.071 887.235 486.071 892.515 C 486.071 898.021 484.641 902.941 481.781 907.275 C 478.921 911.608 474.901 915.021 469.721 917.515 C 464.548 920.015 458.414 921.265 451.321 921.265 C 448.388 921.265 445.381 921.001 442.301 920.475 C 439.228 919.955 436.324 919.235 433.591 918.315 C 430.858 917.388 428.514 916.308 426.561 915.075 C 426.074 914.741 425.701 914.361 425.441 913.935 C 425.174 913.501 425.021 912.835 424.981 911.935 L 423.671 887.685 C 423.558 887.131 423.804 886.828 424.411 886.775 C 425.018 886.721 425.374 886.915 425.481 887.355 C 426.634 890.715 428.064 894.191 429.771 897.785 C 431.478 901.371 433.524 904.671 435.911 907.685 C 438.291 910.691 441.078 913.145 444.271 915.045 C 447.464 916.938 451.154 917.885 455.341 917.885 C 458.234 917.885 461.018 917.368 463.691 916.335 C 466.364 915.295 468.554 913.505 470.261 910.965 C 471.974 908.431 472.831 904.948 472.831 900.515 C 472.831 895.255 471.664 890.805 469.331 887.165 C 466.998 883.525 464.018 880.348 460.391 877.635 C 456.764 874.921 452.948 872.345 448.941 869.905 C 445.088 867.465 441.381 864.931 437.821 862.305 C 434.254 859.678 431.361 856.635 429.141 853.175 C 426.914 849.708 425.801 845.485 425.801 840.505 C 425.801 834.531 427.408 829.615 430.621 825.755 C 433.841 821.895 437.958 819.031 442.971 817.165 C 447.991 815.291 453.138 814.355 458.411 814.355 C 461.918 814.355 465.478 814.691 469.091 815.365 C 472.711 816.031 475.904 816.951 478.671 818.125 C 479.678 818.518 480.341 818.978 480.661 819.505 C 480.981 820.031 481.141 820.601 481.141 821.215 L 481.761 842.675 C 481.761 843.055 481.491 843.291 480.951 843.385 C 480.404 843.485 480.044 843.348 479.871 842.975 C 479.398 841.201 478.611 838.891 477.511 836.045 C 476.418 833.205 474.914 830.361 473.001 827.515 C 471.088 824.668 468.648 822.265 465.681 820.305 C 462.714 818.351 459.121 817.375 454.901 817.375 C 451.341 817.375 448.318 818.105 445.831 819.565 C 443.351 821.031 441.458 823.005 440.151 825.485 C 438.844 827.971 438.191 830.875 438.191 834.195 Z M 515.041 919.285 C 514.601 919.285 514.381 918.955 514.381 918.295 C 514.381 917.635 514.601 917.305 515.041 917.305 C 519.074 917.305 523.088 915.695 527.081 912.475 C 531.081 909.255 535.354 904.265 539.901 897.505 L 588.711 824.585 C 590.804 821.725 591.271 819.938 590.111 819.225 C 588.958 818.511 584.971 818.155 578.151 818.155 C 577.871 818.155 577.731 817.825 577.731 817.165 C 577.731 816.505 577.871 816.175 578.151 816.175 L 645.961 816.175 C 647.021 816.175 647.551 816.668 647.551 817.655 L 647.881 838.785 C 647.881 839.045 647.578 839.208 646.971 839.275 C 646.364 839.341 646.028 839.208 645.961 838.875 C 645.574 835.961 644.451 833.081 642.591 830.235 C 640.731 827.388 638.318 825.015 635.351 823.115 C 632.384 821.221 629.078 820.275 625.431 820.275 L 617.421 820.275 C 614.554 820.275 612.284 820.555 610.611 821.115 C 608.931 821.675 607.748 822.648 607.061 824.035 C 606.381 825.421 606.041 827.308 606.041 829.695 L 606.041 905.265 C 606.041 907.758 606.351 909.728 606.971 911.175 C 607.584 912.615 608.634 913.658 610.121 914.305 C 611.608 914.951 613.684 915.275 616.351 915.275 L 626.131 915.275 C 629.811 915.275 633.364 914.331 636.791 912.445 C 640.224 910.558 643.218 907.998 645.771 904.765 C 648.324 901.531 650.071 897.921 651.011 893.935 C 651.078 893.608 651.408 893.505 652.001 893.625 C 652.594 893.745 652.891 893.935 652.891 894.195 C 652.518 897.248 652.178 900.881 651.871 905.095 C 651.564 909.301 651.411 913.208 651.411 916.815 C 651.411 918.461 650.564 919.285 648.871 919.285 L 579.221 919.285 C 579.001 919.285 578.891 918.955 578.891 918.295 C 578.891 917.635 579.001 917.305 579.221 917.305 C 582.948 917.305 585.728 917.031 587.561 916.485 C 589.388 915.931 590.628 914.831 591.281 913.185 C 591.928 911.531 592.251 909.111 592.251 905.925 L 592.251 822.175 L 597.241 819.635 L 545.821 897.535 C 541.681 903.868 540.304 908.748 541.691 912.175 C 543.071 915.595 547.088 917.305 553.741 917.305 C 554.288 917.305 554.561 917.635 554.561 918.295 C 554.561 918.955 554.288 919.285 553.741 919.285 C 550.054 919.285 546.708 919.175 543.701 918.955 C 540.688 918.735 536.801 918.625 532.041 918.625 C 528.328 918.625 525.344 918.735 523.091 918.955 C 520.844 919.175 518.161 919.285 515.041 919.285 Z M 563.221 867.635 L 565.701 863.625 L 602.011 863.625 L 603.171 867.635 L 563.221 867.635 Z M 631.531 881.675 C 631.531 876.988 630.098 873.475 627.231 871.135 C 624.364 868.801 620.688 867.635 616.201 867.635 L 598.291 867.635 L 598.291 863.625 L 616.421 863.625 C 620.808 863.625 624.394 862.611 627.181 860.585 C 629.974 858.558 631.371 855.551 631.371 851.565 C 631.371 851.278 631.684 851.135 632.311 851.135 C 632.938 851.135 633.251 851.278 633.251 851.565 C 633.251 855.011 633.224 857.698 633.171 859.625 C 633.111 861.545 633.081 863.558 633.081 865.665 C 633.081 868.278 633.154 870.848 633.301 873.375 C 633.441 875.901 633.511 878.668 633.511 881.675 C 633.511 881.895 633.181 882.005 632.521 882.005 C 631.861 882.005 631.531 881.895 631.531 881.675 M 712.921 819.555 C 706.121 819.555 700.701 821.545 696.661 825.525 C 692.621 829.505 689.544 835.631 687.431 843.905 C 687.371 844.191 687.041 844.318 686.441 844.285 C 685.848 844.251 685.551 844.091 685.551 843.805 C 685.771 842.358 686.001 840.288 686.241 837.595 C 686.488 834.908 686.738 831.991 686.991 828.845 C 687.238 825.705 687.444 822.675 687.611 819.755 C 687.778 816.835 687.861 814.431 687.861 812.545 C 687.861 811.991 688.174 811.715 688.801 811.715 C 689.428 811.715 689.741 811.991 689.741 812.545 C 689.741 813.645 690.298 814.441 691.411 814.935 C 692.518 815.428 693.791 815.758 695.231 815.925 C 696.671 816.091 697.884 816.175 698.871 816.175 C 708.331 816.501 719.388 816.665 732.041 816.665 C 739.781 816.665 745.951 816.581 750.551 816.415 C 755.144 816.255 759.588 816.175 763.881 816.175 C 767.701 816.175 770.631 815.925 772.671 815.425 C 774.704 814.931 775.994 813.805 776.541 812.045 C 776.654 811.605 777.001 811.385 777.581 811.385 C 778.161 811.385 778.451 811.605 778.451 812.045 C 778.278 813.758 778.098 816.105 777.911 819.085 C 777.724 822.058 777.561 825.188 777.421 828.475 C 777.274 831.755 777.148 834.785 777.041 837.565 C 776.928 840.345 776.871 842.425 776.871 843.805 C 776.871 844.091 776.574 844.235 775.981 844.235 C 775.388 844.235 775.058 844.091 774.991 843.805 C 774.024 835.211 771.608 829.021 767.741 825.235 C 763.881 821.448 758.481 819.555 751.541 819.555 C 748.114 819.555 745.528 819.811 743.781 820.325 C 742.041 820.838 740.888 821.821 740.321 823.275 C 739.754 824.728 739.471 826.925 739.471 829.865 L 739.471 905.925 C 739.471 909.111 739.821 911.531 740.521 913.185 C 741.228 914.831 742.634 915.931 744.741 916.485 C 746.848 917.031 750.061 917.305 754.381 917.305 C 754.668 917.305 754.811 917.635 754.811 918.295 C 754.811 918.955 754.668 919.285 754.381 919.285 C 751.394 919.285 748.034 919.231 744.301 919.125 C 740.561 919.011 736.474 918.955 732.041 918.955 C 727.821 918.955 723.841 919.011 720.101 919.125 C 716.368 919.231 712.951 919.285 709.851 919.285 C 709.571 919.285 709.431 918.955 709.431 918.295 C 709.431 917.635 709.571 917.305 709.851 917.305 C 714.064 917.305 717.251 917.031 719.411 916.485 C 721.571 915.931 723.031 914.831 723.791 913.185 C 724.558 911.531 724.941 909.111 724.941 905.925 L 724.941 829.535 C 724.941 826.661 724.644 824.515 724.051 823.095 C 723.464 821.675 722.304 820.731 720.571 820.265 C 718.831 819.791 716.281 819.555 712.921 819.555 Z M 880.661 919.285 L 809.711 919.285 C 809.431 919.285 809.291 918.955 809.291 918.295 C 809.291 917.635 809.431 917.305 809.711 917.305 C 813.438 917.305 816.218 917.031 818.051 916.485 C 819.884 915.931 821.111 914.831 821.731 913.185 C 822.344 911.531 822.651 909.111 822.651 905.925 L 822.651 829.535 C 822.651 826.341 822.344 823.948 821.731 822.355 C 821.111 820.761 819.884 819.661 818.051 819.055 C 816.218 818.455 813.438 818.155 809.711 818.155 C 809.431 818.155 809.291 817.825 809.291 817.165 C 809.291 816.505 809.431 816.175 809.711 816.175 L 877.761 816.175 C 878.814 816.175 879.341 816.668 879.341 817.655 L 879.671 838.785 C 879.671 839.045 879.384 839.208 878.811 839.275 C 878.244 839.341 877.894 839.208 877.761 838.875 C 876.728 832.708 874.371 828.065 870.691 824.945 C 867.011 821.831 862.168 820.275 856.161 820.275 L 848.561 820.275 C 845.588 820.275 843.264 820.565 841.591 821.145 C 839.911 821.731 838.728 822.741 838.041 824.175 C 837.361 825.608 837.021 827.561 837.021 830.035 L 837.021 905.265 C 837.021 907.758 837.331 909.745 837.951 911.225 C 838.564 912.698 839.614 913.741 841.101 914.355 C 842.588 914.968 844.688 915.275 847.401 915.275 L 856.861 915.275 C 863.714 915.275 869.318 913.448 873.671 909.795 C 878.024 906.141 881.071 900.855 882.811 893.935 C 882.871 893.608 883.218 893.505 883.851 893.625 C 884.478 893.745 884.791 893.935 884.791 894.195 C 884.351 897.248 883.978 900.881 883.671 905.095 C 883.364 909.301 883.211 913.208 883.211 916.815 C 883.211 918.461 882.361 919.285 880.661 919.285 Z M 863.421 881.675 C 863.421 876.988 861.991 873.475 859.131 871.135 C 856.264 868.801 852.584 867.635 848.091 867.635 L 830.181 867.635 L 830.181 863.625 L 848.321 863.625 C 852.708 863.625 856.294 862.611 859.081 860.585 C 861.868 858.558 863.261 855.551 863.261 851.565 C 863.261 851.278 863.574 851.135 864.201 851.135 C 864.828 851.135 865.141 851.278 865.141 851.565 C 865.141 855.011 865.114 857.698 865.061 859.625 C 865.008 861.545 864.981 863.558 864.981 865.665 C 864.981 868.278 865.051 870.848 865.191 873.375 C 865.331 875.901 865.401 878.668 865.401 881.675 C 865.401 881.895 865.071 882.005 864.411 882.005 C 863.751 882.005 863.421 881.895 863.421 881.675 M 997.081 919.285 C 996.021 919.285 994.011 917.045 991.051 912.565 C 988.091 908.091 984.678 901.921 980.811 894.055 C 976.944 886.188 973.001 877.221 968.981 867.155 L 979.811 862.965 C 985.971 876.205 991.371 886.801 996.011 894.755 C 1000.64 902.701 1004.86 908.448 1008.65 911.995 C 1012.44 915.535 1016.09 917.305 1019.61 917.305 C 1019.94 917.305 1020.11 917.635 1020.11 918.295 C 1020.11 918.955 1019.94 919.285 1019.61 919.285 C 1013.82 919.285 1009.07 919.285 1005.35 919.285 C 1001.64 919.285 998.881 919.285 997.081 919.285 Z M 970.551 815.675 C 979.991 815.675 987.231 817.598 992.271 821.445 C 997.304 825.285 999.821 830.481 999.821 837.035 C 999.821 843.255 998.051 848.808 994.511 853.695 C 990.971 858.588 986.334 862.411 980.601 865.165 C 974.874 867.911 968.694 869.285 962.061 869.285 C 960.748 869.285 959.351 869.261 957.871 869.215 C 956.384 869.168 955.028 869.091 953.801 868.985 L 953.801 905.925 C 953.801 909.111 954.098 911.531 954.691 913.185 C 955.291 914.831 956.518 915.931 958.371 916.485 C 960.224 917.031 963.014 917.305 966.741 917.305 C 967.008 917.305 967.141 917.635 967.141 918.295 C 967.141 918.955 967.008 919.285 966.741 919.285 C 963.968 919.285 960.901 919.231 957.541 919.125 C 954.181 919.011 950.481 918.955 946.441 918.955 C 942.661 918.955 939.041 919.011 935.581 919.125 C 932.121 919.231 929.004 919.285 926.231 919.285 C 925.951 919.285 925.811 918.955 925.811 918.295 C 925.811 917.635 925.951 917.305 926.231 917.305 C 929.958 917.305 932.748 917.031 934.601 916.485 C 936.461 915.931 937.728 914.831 938.401 913.185 C 939.068 911.531 939.401 909.111 939.401 905.925 L 939.401 829.535 C 939.401 826.341 939.094 823.948 938.481 822.355 C 937.861 820.761 936.634 819.661 934.801 819.055 C 932.974 818.455 930.198 818.155 926.471 818.155 C 926.204 818.155 926.071 817.825 926.071 817.165 C 926.071 816.505 926.204 816.175 926.471 816.175 C 929.191 816.175 932.254 816.255 935.661 816.415 C 939.068 816.581 942.661 816.665 946.441 816.665 C 948.814 816.665 951.421 816.581 954.261 816.415 C 957.101 816.255 959.961 816.091 962.841 815.925 C 965.728 815.758 968.298 815.675 970.551 815.675 Z M 984.961 842.555 C 984.961 836.295 984.164 831.438 982.571 827.985 C 980.978 824.525 978.744 822.095 975.871 820.695 C 972.991 819.295 969.568 818.595 965.601 818.595 C 961.381 818.595 958.361 819.375 956.541 820.935 C 954.714 822.495 953.801 825.471 953.801 829.865 L 953.801 864.705 C 955.341 864.878 957.001 865.021 958.781 865.135 C 960.568 865.241 962.141 865.295 963.501 865.295 C 971.401 865.295 976.951 863.428 980.151 859.695 C 983.358 855.961 984.961 850.248 984.961 842.555 Z"/>
    <path id="dyreklinikk" d="M 424.641 996.285 L 424.641 960.285 L 438.871 960.285 C 442.698 960.285 446.048 961.055 448.921 962.595 C 451.794 964.141 454.031 966.265 455.631 968.965 C 457.231 971.671 458.031 974.778 458.031 978.285 C 458.031 981.791 457.231 984.898 455.631 987.605 C 454.031 990.305 451.794 992.428 448.921 993.975 C 446.048 995.515 442.698 996.285 438.871 996.285 L 424.641 996.285 Z M 427.281 993.935 L 438.701 993.935 C 442.094 993.935 445.038 993.265 447.531 991.925 C 450.031 990.578 451.964 988.731 453.331 986.385 C 454.698 984.038 455.381 981.338 455.381 978.285 C 455.381 975.225 454.698 972.521 453.331 970.175 C 451.964 967.835 450.031 965.991 447.531 964.645 C 445.038 963.305 442.094 962.635 438.701 962.635 L 427.281 962.635 L 427.281 993.935 Z M 499.881 996.285 L 499.881 983.225 L 500.501 984.935 L 485.381 960.285 L 488.261 960.285 L 501.991 982.655 L 500.551 982.655 L 514.301 960.285 L 517.031 960.285 L 501.911 984.935 L 502.521 983.225 L 502.521 996.285 L 499.881 996.285 Z M 547.851 996.285 L 547.851 960.285 L 560.781 960.285 C 565.294 960.285 568.838 961.351 571.411 963.485 C 573.984 965.611 575.271 968.585 575.271 972.405 C 575.271 974.918 574.691 977.078 573.531 978.885 C 572.371 980.691 570.711 982.078 568.551 983.045 C 566.391 984.011 563.801 984.495 560.781 984.495 L 549.311 984.495 L 550.491 983.275 L 550.491 996.285 L 547.851 996.285 Z M 572.831 996.285 L 563.511 983.225 L 566.471 983.225 L 575.811 996.285 L 572.831 996.285 Z M 550.491 983.415 L 549.311 982.175 L 560.781 982.175 C 564.634 982.175 567.568 981.318 569.581 979.605 C 571.601 977.891 572.611 975.491 572.611 972.405 C 572.611 969.285 571.601 966.875 569.581 965.175 C 567.568 963.481 564.634 962.635 560.781 962.635 L 549.311 962.635 L 550.491 961.385 L 550.491 983.415 Z M 609.181 996.285 L 609.181 960.285 L 633.251 960.285 L 633.251 962.635 L 611.821 962.635 L 611.821 993.935 L 634.001 993.935 L 634.001 996.285 L 609.181 996.285 Z M 611.491 979.155 L 611.491 976.845 L 630.971 976.845 L 630.971 979.155 L 611.491 979.155 Z M 670.161 987.185 L 670.061 983.875 L 693.001 960.285 L 696.151 960.285 L 680.141 976.915 L 678.631 978.505 L 670.161 987.185 Z M 667.881 996.285 L 667.881 960.285 L 670.521 960.285 L 670.521 996.285 L 667.881 996.285 Z M 694.041 996.285 L 677.861 977.775 L 679.681 975.865 L 697.261 996.285 L 694.041 996.285 Z M 728.331 996.285 L 728.331 960.285 L 730.971 960.285 L 730.971 993.935 L 751.661 993.935 L 751.661 996.285 L 728.331 996.285 Z M 782.711 996.285 L 782.711 960.285 L 785.351 960.285 L 785.351 996.285 L 782.711 996.285 Z M 822.181 996.285 L 822.181 960.285 L 824.371 960.285 L 850.071 993.025 L 848.871 993.025 L 848.871 960.285 L 851.511 960.285 L 851.511 996.285 L 849.321 996.285 L 823.621 963.545 L 824.821 963.545 L 824.821 996.285 L 822.181 996.285 Z M 888.341 996.285 L 888.341 960.285 L 890.981 960.285 L 890.981 996.285 L 888.341 996.285 Z M 930.091 987.185 L 929.981 983.875 L 952.921 960.285 L 956.081 960.285 L 940.061 976.915 L 938.561 978.505 L 930.091 987.185 Z M 927.811 996.285 L 927.811 960.285 L 930.451 960.285 L 930.451 996.285 L 927.811 996.285 Z M 953.971 996.285 L 937.781 977.775 L 939.601 975.865 L 957.191 996.285 L 953.971 996.285 Z M 990.541 987.185 L 990.431 983.875 L 1013.37 960.285 L 1016.53 960.285 L 1000.51 976.915 L 999.011 978.505 L 990.541 987.185 Z M 988.261 996.285 L 988.261 960.285 L 990.901 960.285 L 990.901 996.285 L 988.261 996.285 Z M 1014.42 996.285 L 998.231 977.775 L 1000.05 975.865 L 1017.64 996.285 L 1014.42 996.285 Z"/>
  </g>
</svg>